<svg width="64" height="87" viewBox="0 0 64 87" fill="currentColor" xmlns="http://www.w3.org/2000/svg">
<path fill-rule="evenodd" clip-rule="evenodd" d="M14.8687 16.8865C10.7392 15.5335 7.75758 11.6583 7.75758 7.08889L11.4116 7.62111C10.328 5.99078 9.69697 4.03552 9.69697 1.93333L14.8687 2.68661V0L43.6315 4.32799C46.7934 4.80377 49.1313 7.51253 49.1313 10.7003V22.0735C51.3619 22.6459 53.0101 24.6644 53.0101 27.0667C53.0101 29.4689 51.3619 31.4875 49.1313 32.0598V34.1556H49.1043C48.777 40.004 45.4976 45.0668 40.7273 47.8876V50.9111H46.5455C49.9459 50.9111 52.7331 53.5283 52.9907 56.8522C59.2208 57.7768 64 63.132 64 69.6V87H0V69.6C0 62.9078 5.11638 57.4068 11.6625 56.7722C11.9582 53.4864 14.7279 50.9111 18.101 50.9111H23.2727V47.8876C18.5024 45.0668 15.223 40.004 14.8957 34.1556H14.8687V32.2222C12.0124 32.2222 9.69697 29.914 9.69697 27.0667C9.69697 24.2193 12.0124 21.9111 14.8687 21.9111V16.8865Z" fill="currentColor"/>
</svg>
