<svg width="27" height="27" viewBox="0 0 27 33" fill="none" xmlns="http://www.w3.org/2000/svg">
<path d="M23.0731 3.95367H17.9363C17.6801 1.73171 15.7896 0 13.5 0C11.2105 0 9.32026 1.73164 9.06402 3.95367H3.92703C1.84824 3.95367 0.157227 5.64516 0.157227 7.72389V7.91734C0.157227 9.50588 1.14635 10.8655 2.53973 11.4195V29.2298C2.53973 31.3086 4.23095 33 6.30961 33H20.6906C22.7693 33 24.4604 31.3084 24.4604 29.2298V11.4196C25.8537 10.8655 26.8429 9.50588 26.8429 7.9174V7.72396C26.8429 5.64516 25.1517 3.95367 23.0731 3.95367ZM13.5 1.78801C14.8022 1.78801 15.8892 2.72138 16.1297 3.95367H10.8708C11.1113 2.72131 12.1983 1.78801 13.5 1.78801ZM22.6724 29.2298C22.6724 30.3227 21.7831 31.2121 20.6905 31.2121H6.30954C5.21692 31.2121 4.32767 30.3227 4.32767 29.2298V11.6875H22.6724V29.2298ZM25.0549 7.91734C25.0549 9.01029 24.1656 9.89961 23.073 9.89961H3.92703C2.83442 9.89961 1.94517 9.01029 1.94517 7.91734V7.72389C1.94517 6.63093 2.83442 5.74161 3.92703 5.74161H23.0731C24.1657 5.74161 25.0549 6.63093 25.0549 7.72389L25.0549 7.91734Z" fill="currentColor"/>
<path d="M8.70696 28.9254C9.2007 28.9254 9.60093 28.5251 9.60093 28.0315V17.9656C9.60093 17.472 9.20063 17.0716 8.70696 17.0716C8.21329 17.0716 7.81299 17.472 7.81299 17.9656V28.0315C7.81292 28.5252 8.21322 28.9254 8.70696 28.9254Z" fill="currentColor"/>
<path d="M13.4999 28.9254C13.9937 28.9254 14.394 28.5251 14.394 28.0315V17.9656C14.394 17.472 13.9935 17.0716 13.4999 17.0716C13.0063 17.0716 12.606 17.472 12.606 17.9656V28.0315C12.606 28.5252 13.0062 28.9254 13.4999 28.9254Z" fill="currentColor"/>
<path d="M18.293 28.9254C18.7866 28.9254 19.1869 28.5251 19.1869 28.0315V17.9656C19.1869 17.472 18.7866 17.0716 18.293 17.0716C17.7992 17.0716 17.3989 17.472 17.3989 17.9656V28.0315C17.3989 28.5252 17.7993 28.9254 18.293 28.9254Z" fill="currentColor"/>
</svg>
