<svg width="68" height="40" viewBox="0 0 68 40" fill="currentColor" xmlns="http://www.w3.org/2000/svg">
<path d="M2.03691 17.3325C1.91052 17.3325 1.7866 17.3669 1.67908 17.4321C1.57155 17.4972 1.48466 17.5904 1.42816 17.7012L0.0678163 20.368C0.048621 20.4091 0.0335853 20.452 0.0229249 20.496C0.0229249 20.504 0.016804 20.51 0.0147635 20.518C-0.00370135 20.6038 -0.00485739 20.6924 0.0113619 20.7787C0.0113619 20.788 0.0113619 20.7967 0.0113619 20.806L2.05188 30.1397C2.08456 30.2888 2.16842 30.4224 2.28948 30.5183C2.41054 30.6141 2.56147 30.6664 2.71709 30.6663H5.59081L6.11795 36.7232C6.11958 36.7298 6.12162 36.7362 6.12407 36.7426C6.1443 37.6124 6.51068 38.4399 7.14497 39.0486C7.77926 39.6572 8.63118 39.9987 9.5188 40H10.199C11.09 39.9986 11.9448 39.6544 12.5796 39.0417C13.2144 38.4289 13.5786 37.5964 13.5937 36.7232C13.5937 36.7166 13.5985 36.7112 13.5992 36.7046L13.9508 30.6663H17.0007C17.1644 30.6664 17.3226 30.6085 17.4463 30.5035C17.5699 30.3984 17.6508 30.2531 17.6741 30.0943L19.0344 20.7607C19.034 20.7538 19.034 20.7469 19.0344 20.74C19.0436 20.658 19.0374 20.5751 19.016 20.4953C19.012 20.4813 19.0065 20.468 19.0011 20.454C18.993 20.4247 18.983 20.396 18.9712 20.368L17.6108 17.7012C17.5542 17.5902 17.4671 17.4969 17.3593 17.4317C17.2515 17.3666 17.1273 17.3322 17.0007 17.3325H14.7282L14.9228 13.9991C14.9224 13.994 14.9224 13.9889 14.9228 13.9838C16.1638 12.9079 17.0412 11.4871 17.4382 9.91039C17.8351 8.33371 17.7328 6.67593 17.1448 5.15765C16.5568 3.63938 15.5111 2.33262 14.1467 1.41126C12.7824 0.489908 11.1641 -0.00234622 9.50729 8.40795e-06C7.85047 0.00236304 6.23367 0.499214 4.87205 1.42444C3.51042 2.34967 2.46854 3.6594 1.88505 5.17934C1.30156 6.69928 1.20414 8.35735 1.60575 9.9329C2.00736 11.5084 2.88895 12.9268 4.1332 13.9991L4.42432 17.3325H2.03691ZM2.45726 18.6659H4.54131L4.65762 19.9993H1.77709L2.45726 18.6659ZM10.199 38.6666H9.5188C9.09691 38.6661 8.68551 38.5377 8.34101 38.299C7.99651 38.0603 7.73579 37.7229 7.5946 37.3332H12.1232C11.982 37.7229 11.7213 38.0603 11.3768 38.299C11.0323 38.5377 10.6209 38.6661 10.199 38.6666ZM12.2776 35.9999H7.42251L6.9566 30.6663H12.5877L12.2776 35.9999ZM16.411 29.333H3.26735L1.51794 21.3327H13.8039C13.8086 21.3327 13.812 21.336 13.8168 21.336H13.8563C13.8644 21.336 13.8705 21.332 13.8787 21.3313H17.5802L16.411 29.333ZM16.5803 18.6659L17.2605 19.9993H14.5725L14.6507 18.6659H16.5803ZM13.2101 19.9993H6.0234L5.58673 15.0071C6.80022 15.6628 8.16466 16.0034 9.5503 15.9964C10.9359 15.9894 12.2967 15.635 13.5033 14.9671L13.2101 19.9993ZM4.15973 3.89406C4.98807 2.8551 6.11212 2.08022 7.38975 1.66743C8.66738 1.25464 10.0412 1.22247 11.3375 1.57498C12.6338 1.9275 13.7943 2.64887 14.6723 3.64788C15.5503 4.64689 16.1064 5.87866 16.2702 7.18743C16.434 8.49621 16.1982 9.8232 15.5925 11.0006C14.9869 12.178 14.0387 13.1529 12.8678 13.8021C11.6969 14.4513 10.3559 14.7456 9.01432 14.6477C7.67278 14.5499 6.39097 14.0643 5.33099 13.2524C3.91142 12.1624 2.99089 10.565 2.77132 8.81059C2.55175 7.05621 3.05106 5.28808 4.15973 3.89406Z" fill="currentColor"/>
<path d="M9.51854 22.666C8.98044 22.666 8.45442 22.8224 8.00701 23.1154C7.55959 23.4085 7.21088 23.825 7.00495 24.3123C6.79903 24.7995 6.74515 25.3357 6.85013 25.853C6.95511 26.3703 7.21423 26.8455 7.59472 27.2185C7.97522 27.5914 8.46 27.8454 8.98776 27.9483C9.51552 28.0512 10.0626 27.9984 10.5597 27.7965C11.0568 27.5947 11.4818 27.2529 11.7807 26.8143C12.0797 26.3758 12.2392 25.8602 12.2392 25.3328C12.2392 24.6255 11.9526 23.9472 11.4424 23.4471C10.9321 22.947 10.2401 22.666 9.51854 22.666ZM9.51854 26.6662C9.24949 26.6662 8.98648 26.588 8.76277 26.4414C8.53907 26.2949 8.36471 26.0867 8.26175 25.843C8.15879 25.5994 8.13185 25.3313 8.18434 25.0726C8.23682 24.814 8.36638 24.5764 8.55663 24.3899C8.74688 24.2035 8.98927 24.0765 9.25315 24.025C9.51703 23.9736 9.79055 24 10.0391 24.1009C10.2877 24.2018 10.5001 24.3727 10.6496 24.592C10.7991 24.8113 10.8789 25.0691 10.8789 25.3328C10.8789 25.6864 10.7356 26.0256 10.4804 26.2756C10.2253 26.5257 9.87933 26.6662 9.51854 26.6662Z" fill="currentColor"/>
<path d="M12.2392 11.999H10.8789V13.3324H12.2392V11.999Z" fill="currentColor"/>
<path d="M14.96 9.33228H13.5996V10.6657H14.96V9.33228Z" fill="currentColor"/>
<path d="M12.2392 9.33228H10.8789V10.6657H12.2392V9.33228Z" fill="currentColor"/>
<path d="M34.38 12.72C34.38 14.32 34.08 15.66 33.48 16.74C32.8933 17.82 32.0467 18.6333 30.94 19.18C29.8333 19.7267 28.4933 20 26.92 20H22.94V5.72H27.34C28.78 5.72 30.0267 5.98667 31.08 6.52C32.1333 7.05333 32.9467 7.84 33.52 8.88C34.0933 9.90667 34.38 11.1867 34.38 12.72ZM32.48 12.78C32.48 11.5133 32.2667 10.4733 31.84 9.66C31.4267 8.84667 30.8133 8.24667 30 7.86C29.2 7.46 28.2267 7.26 27.08 7.26H24.74V18.46H26.68C28.6133 18.46 30.06 17.9867 31.02 17.04C31.9933 16.08 32.48 14.66 32.48 12.78ZM41.3694 9.1C42.676 9.1 43.6427 9.38667 44.2694 9.96C44.896 10.5333 45.2094 11.4467 45.2094 12.7V20H43.9294L43.5894 18.48H43.5094C43.2027 18.8667 42.8827 19.1933 42.5494 19.46C42.2294 19.7133 41.856 19.9 41.4294 20.02C41.016 20.14 40.5094 20.2 39.9094 20.2C39.2694 20.2 38.6894 20.0867 38.1694 19.86C37.6627 19.6333 37.2627 19.2867 36.9694 18.82C36.676 18.34 36.5294 17.74 36.5294 17.02C36.5294 15.9533 36.9494 15.1333 37.7894 14.56C38.6294 13.9733 39.9227 13.6533 41.6694 13.6L43.4894 13.54V12.9C43.4894 12.0067 43.296 11.3867 42.9094 11.04C42.5227 10.6933 41.976 10.52 41.2694 10.52C40.7094 10.52 40.176 10.6067 39.6694 10.78C39.1627 10.94 38.6894 11.1267 38.2494 11.34L37.7094 10.02C38.176 9.76667 38.7294 9.55333 39.3694 9.38C40.0094 9.19333 40.676 9.1 41.3694 9.1ZM41.8894 14.82C40.556 14.8733 39.6294 15.0867 39.1094 15.46C38.6027 15.8333 38.3494 16.36 38.3494 17.04C38.3494 17.64 38.5294 18.08 38.8894 18.36C39.2627 18.64 39.736 18.78 40.3094 18.78C41.216 18.78 41.9694 18.5333 42.5694 18.04C43.1694 17.5333 43.4694 16.76 43.4694 15.72V14.76L41.8894 14.82ZM50.2803 9.28V20H48.5203V9.28H50.2803ZM49.4203 5.26C49.687 5.26 49.9203 5.35333 50.1203 5.54C50.3336 5.71333 50.4403 5.99333 50.4403 6.38C50.4403 6.75333 50.3336 7.03333 50.1203 7.22C49.9203 7.40667 49.687 7.5 49.4203 7.5C49.127 7.5 48.8803 7.40667 48.6803 7.22C48.4803 7.03333 48.3803 6.75333 48.3803 6.38C48.3803 5.99333 48.4803 5.71333 48.6803 5.54C48.8803 5.35333 49.127 5.26 49.4203 5.26ZM55.4366 20H53.6766V4.8H55.4366V20ZM57.1528 9.28H59.0328L61.3528 15.38C61.4861 15.74 61.6061 16.0867 61.7128 16.42C61.8328 16.7533 61.9395 17.08 62.0328 17.4C62.1261 17.7067 62.1995 18.0067 62.2528 18.3H62.3328C62.4128 17.9667 62.5395 17.5333 62.7128 17C62.8861 16.4533 63.0661 15.9067 63.2528 15.36L65.4328 9.28H67.3328L62.7128 21.48C62.4595 22.1467 62.1595 22.7267 61.8128 23.22C61.4795 23.7267 61.0661 24.1133 60.5728 24.38C60.0928 24.66 59.5061 24.8 58.8128 24.8C58.4928 24.8 58.2128 24.78 57.9728 24.74C57.7328 24.7133 57.5261 24.68 57.3528 24.64V23.24C57.4995 23.2667 57.6728 23.2933 57.8728 23.32C58.0861 23.3467 58.3061 23.36 58.5328 23.36C58.9461 23.36 59.2995 23.28 59.5928 23.12C59.8995 22.9733 60.1595 22.7533 60.3728 22.46C60.5861 22.18 60.7661 21.8467 60.9128 21.46L61.4728 20.04L57.1528 9.28ZM27.02 21.72C28.2067 21.72 29.2 21.8333 30 22.06C30.8133 22.2867 31.42 22.66 31.82 23.18C32.2333 23.7 32.44 24.3933 32.44 25.26C32.44 25.82 32.3333 26.32 32.12 26.76C31.92 27.1867 31.6133 27.5467 31.2 27.84C30.8 28.12 30.3067 28.3133 29.72 28.42V28.52C30.32 28.6133 30.86 28.7867 31.34 29.04C31.8333 29.2933 32.22 29.6533 32.5 30.12C32.78 30.5867 32.92 31.1933 32.92 31.94C32.92 32.8067 32.72 33.5467 32.32 34.16C31.92 34.76 31.3467 35.22 30.6 35.54C29.8667 35.8467 28.9867 36 27.96 36H22.94V21.72H27.02ZM27.38 27.8C28.6067 27.8 29.4467 27.6067 29.9 27.22C30.3533 26.82 30.58 26.2333 30.58 25.46C30.58 24.6733 30.3 24.1133 29.74 23.78C29.1933 23.4333 28.3133 23.26 27.1 23.26H24.74V27.8H27.38ZM24.74 29.3V34.48H27.62C28.8867 34.48 29.7667 34.2333 30.26 33.74C30.7533 33.2467 31 32.6 31 31.8C31 31.2933 30.8867 30.8533 30.66 30.48C30.4467 30.1067 30.08 29.82 29.56 29.62C29.0533 29.4067 28.36 29.3 27.48 29.3H24.74ZM44.6678 25.28V36H43.2278L42.9678 34.58H42.8878C42.6611 34.9533 42.3678 35.26 42.0078 35.5C41.6478 35.74 41.2545 35.9133 40.8278 36.02C40.4011 36.14 39.9545 36.2 39.4878 36.2C38.6345 36.2 37.9145 36.0667 37.3278 35.8C36.7545 35.52 36.3211 35.0933 36.0278 34.52C35.7345 33.9467 35.5878 33.2067 35.5878 32.3V25.28H37.3678V32.18C37.3678 33.0333 37.5611 33.6733 37.9478 34.1C38.3345 34.5267 38.9345 34.74 39.7478 34.74C40.5478 34.74 41.1745 34.5933 41.6278 34.3C42.0945 33.9933 42.4211 33.5533 42.6078 32.98C42.8078 32.3933 42.9078 31.6867 42.9078 30.86V25.28H44.6678ZM54.9911 36H47.1511V34.84L52.9111 26.64H47.4911V25.28H54.8511V26.6L49.1711 34.64H54.9911V36ZM64.3856 36H56.5456V34.84L62.3056 26.64H56.8856V25.28H64.2456V26.6L58.5656 34.64H64.3856V36Z" fill="currentColor"/>
</svg>
