<svg width="30" height="30" viewBox="0 0 30 30" fill="none" xmlns="http://www.w3.org/2000/svg">
<g clip-path="url(#clip0_2061_563)">
<path d="M11.3379 0.0410309C10.9863 0.123062 9.97851 0.457047 9.49804 0.656265C4.83398 2.59572 1.42382 6.61525 0.351556 11.4258C-0.0703185 13.3184 -0.123053 15.5918 0.210931 17.461C1.27148 23.3555 5.71874 28.1016 11.5137 29.5254C12.8437 29.8477 13.7051 29.9531 15.1758 29.9473C17.6133 29.9473 19.8457 29.4258 21.9668 28.3652C25.8633 26.4082 28.5996 23.0977 29.8183 18.8613C30.0996 17.8887 30.0469 17.4668 29.6133 17.1738C29.4551 17.0625 29.332 17.0332 29.0742 17.0332C28.6933 17.0332 28.582 17.0801 28.0957 17.461C25.5644 19.4297 22.5 20.25 19.4531 19.7695C17.0098 19.3828 14.9121 18.3223 13.1836 16.5879C12.2344 15.6387 11.6543 14.8242 11.0566 13.6231C9.51562 10.5117 9.51562 6.75002 11.0625 3.66212C11.3789 3.02931 11.6074 2.65431 12.1113 1.98048C12.5098 1.43556 12.5918 1.20705 12.5156 0.791031C12.4629 0.527359 12.1816 0.199234 11.9355 0.128922C11.6484 0.0410309 11.4668 0.011734 11.3379 0.0410309ZM8.96484 3.48634C8.31445 4.93361 7.91015 6.94923 7.91015 8.73634C7.91015 12.3047 9.43945 15.8672 12.0351 18.3223C13.9922 20.1738 16.3535 21.334 19.1074 21.8027C20.1035 21.9668 21.9726 21.9844 23.0098 21.8379C24.2226 21.6563 25.5937 21.2695 26.625 20.8067C26.8476 20.7012 27.041 20.6309 27.0527 20.6426C27.0879 20.6777 26.3555 21.8613 25.9805 22.3652C24.4922 24.3867 22.4238 26.0215 20.2324 26.9004C19.2187 27.3106 18.0234 27.6211 16.875 27.7793C16.043 27.8906 14.2324 27.8789 13.418 27.7559C9.05859 27.0879 5.38476 24.4043 3.45703 20.4785C2.54882 18.627 2.10937 16.7695 2.10937 14.7363C2.10937 10.1192 4.51171 5.88869 8.50781 3.47462C8.84179 3.26955 9.11718 3.10548 9.12304 3.10548C9.1289 3.10548 9.05859 3.27541 8.96484 3.48634Z" fill="#C6C6C6"/>
</g>
<defs>
<clipPath id="clip0_2061_563">
<rect width="30" height="30" fill="white"/>
</clipPath>
</defs>
</svg>
