<svg width="16" height="20" viewBox="0 0 16 20" fill="none" xmlns="http://www.w3.org/2000/svg">
<path d="M13.3333 0C12.6261 0 11.9478 0.316071 11.4477 0.87868C10.9476 1.44129 10.6667 2.20435 10.6667 3C10.6672 3.18815 10.6835 3.37583 10.7153 3.56055L4.39063 7.71094C3.9089 7.25184 3.29801 6.99992 2.66667 7C1.95942 7 1.28115 7.31607 0.781049 7.87868C0.280952 8.44129 0 9.20435 0 10C0 10.7956 0.280952 11.5587 0.781049 12.1213C1.28115 12.6839 1.95942 13 2.66667 13C3.29703 12.9986 3.90658 12.746 4.38715 12.2871L10.7153 16.4395C10.6835 16.6242 10.6672 16.8118 10.6667 17C10.6667 17.7956 10.9476 18.5587 11.4477 19.1213C11.9478 19.6839 12.6261 20 13.3333 20C14.0406 20 14.7189 19.6839 15.219 19.1213C15.719 18.5587 16 17.7956 16 17C16 16.2044 15.719 15.4413 15.219 14.8787C14.7189 14.3161 14.0406 14 13.3333 14C12.7024 14.0009 12.0921 14.2535 11.6111 14.7129L5.28472 10.5605C5.31651 10.3758 5.33279 10.1882 5.33333 10C5.33279 9.81185 5.31651 9.62417 5.28472 9.43945L11.6094 5.28906C12.0911 5.74816 12.702 6.00008 13.3333 6C14.0406 6 14.7189 5.68393 15.219 5.12132C15.719 4.55871 16 3.79565 16 3C16 2.20435 15.719 1.44129 15.219 0.87868C14.7189 0.316071 14.0406 0 13.3333 0Z" fill="black"/>
</svg>
