<svg width="30" height="30" viewBox="0 0 30 30" fill="none" xmlns="http://www.w3.org/2000/svg">
<g clip-path="url(#clip0_2109_314)">
<path d="M14.502 0.111325C14.2676 0.25195 14.0859 0.462888 14.0098 0.662107C13.9688 0.767575 13.9453 1.47656 13.9453 2.5664C13.9453 4.56445 13.9688 4.66406 14.4199 4.96289C14.9473 5.30859 15.6855 5.10937 15.9434 4.55273C16.043 4.33008 16.0547 4.14843 16.0547 2.5664C16.0547 1.47656 16.0312 0.767575 15.9902 0.662107C15.9141 0.462888 15.668 0.193357 15.457 0.0820284C15.2285 -0.0351591 14.7129 -0.0234404 14.502 0.111325Z" fill="black"/>
<path d="M4.52953 4.24804C4.11351 4.5 3.93187 5.07422 4.12523 5.52539C4.24242 5.79492 6.72679 8.24414 6.93187 8.29687C7.18968 8.35547 7.67015 8.29101 7.84007 8.16211C8.21507 7.88672 8.37328 7.44726 8.26195 7.01953C8.20336 6.80273 8.01 6.58007 6.95531 5.51367C6.26976 4.82812 5.63109 4.23047 5.52562 4.18359C5.22679 4.05468 4.81078 4.07812 4.52953 4.24804Z" fill="black"/>
<path d="M24.4624 4.1836C24.3687 4.23047 23.73 4.82813 23.0445 5.51368C21.9898 6.58008 21.7964 6.80274 21.7378 7.01954C21.6207 7.47071 21.7964 7.91602 22.2007 8.18555C22.4175 8.33204 22.8394 8.36719 23.1265 8.26172C23.3433 8.17969 25.7691 5.76563 25.8746 5.5254C26.0738 5.07422 25.8863 4.49415 25.4644 4.24805C25.1773 4.08399 24.7496 4.05469 24.4624 4.1836Z" fill="black"/>
<path d="M13.7993 7.52341C13.5767 7.56443 13.1899 7.65232 12.9497 7.72263C10.2544 8.47849 8.18604 10.7109 7.57666 13.5351C7.43018 14.2324 7.43018 15.7676 7.57666 16.4648C8.22119 19.459 10.5063 21.7617 13.4771 22.4121C14.0981 22.5468 15.3638 22.5937 15.9907 22.5C18.481 22.1426 20.561 20.6718 21.7036 18.457C22.2485 17.4082 22.4888 16.5 22.5415 15.2988C22.6235 13.4355 22.0728 11.7422 20.895 10.2773C19.8286 8.94724 18.2349 7.96872 16.5239 7.58786C15.9438 7.45896 14.356 7.4238 13.7993 7.52341ZM15.8853 9.63864C17.9185 9.99021 19.4888 11.3144 20.1392 13.2129C20.7017 14.8593 20.4673 16.6172 19.5005 18.0761C18.8794 19.0019 17.8833 19.7636 16.7876 20.1386C15.897 20.4375 14.9946 20.5195 14.1157 20.3613C12.9146 20.1504 11.9302 19.6465 11.1274 18.8261C10.313 18 9.84424 17.0683 9.63916 15.8847C9.48096 15.0058 9.56299 14.1035 9.86182 13.2129C10.7173 10.7168 13.2954 9.18161 15.8853 9.63864Z" fill="black"/>
<path d="M0.644531 14.0098C0.457031 14.0859 0.1875 14.3379 0.0820312 14.543C0.0351562 14.6309 0 14.8418 0 15.0117C0 15.4277 0.181641 15.7383 0.521484 15.9199C0.773438 16.0547 0.808594 16.0547 2.54297 16.0547C4.14844 16.0547 4.33008 16.043 4.55273 15.9434C5.32031 15.5918 5.32031 14.4082 4.55273 14.0566C4.33008 13.957 4.1543 13.9453 2.54883 13.9512C1.5293 13.9512 0.732422 13.9746 0.644531 14.0098Z" fill="black"/>
<path d="M25.4474 14.0566C25.295 14.127 25.1427 14.2617 25.0372 14.4199C24.6915 14.9473 24.8907 15.6855 25.4474 15.9434C25.67 16.043 25.8517 16.0547 27.4337 16.0547C28.5236 16.0547 29.2325 16.0312 29.338 15.9902C29.5372 15.9141 29.8068 15.668 29.9181 15.457C29.965 15.3691 30.0001 15.1641 30.0001 15C30.0001 14.8359 29.965 14.6309 29.9181 14.543C29.8068 14.332 29.5372 14.0859 29.338 14.0098C29.2325 13.9688 28.5236 13.9453 27.4337 13.9453C25.8517 13.9453 25.67 13.957 25.4474 14.0566Z" fill="black"/>
<path d="M6.82597 21.7617C6.59159 21.8731 4.18339 24.2988 4.10136 24.5098C3.9373 24.961 4.13066 25.5117 4.53495 25.752C4.82206 25.9219 5.22636 25.9453 5.52519 25.8164C5.63066 25.7696 6.26933 25.1719 6.95487 24.4863C8.00956 23.4199 8.20292 23.1973 8.26151 22.9805C8.3787 22.5293 8.20292 22.084 7.79862 21.8145C7.57011 21.6563 7.11308 21.6328 6.82597 21.7617Z" fill="black"/>
<path d="M22.2364 21.7735C22.1427 21.8203 22.0138 21.9082 21.9493 21.961C21.6739 22.2071 21.5978 22.8106 21.7911 23.1914C21.9376 23.4668 24.1583 25.6758 24.4278 25.8106C24.6915 25.9453 25.254 25.9102 25.4708 25.7461C25.7521 25.5352 25.8575 25.336 25.8868 24.9727C25.9044 24.709 25.8868 24.5801 25.7931 24.3985C25.6466 24.1114 23.3497 21.8262 23.1271 21.7442C22.8868 21.6504 22.4415 21.668 22.2364 21.7735Z" fill="black"/>
<path d="M14.6543 24.9023C14.3789 25.0195 14.1621 25.2188 14.0566 25.4531C13.957 25.6699 13.9453 25.8633 13.9453 27.4336C13.9453 28.5234 13.9688 29.2324 14.0098 29.3379C14.0859 29.5371 14.332 29.8066 14.543 29.918C14.748 30.0234 15.252 30.0234 15.457 29.918C15.668 29.8066 15.9141 29.5371 15.9902 29.3379C16.0312 29.2324 16.0547 28.5234 16.0547 27.4336C16.0547 25.4414 16.0312 25.3359 15.5918 25.043C15.3281 24.8672 14.8887 24.8027 14.6543 24.9023Z" fill="black"/>
</g>
<defs>
<clipPath id="clip0_2109_314">
<rect width="30" height="29.9955" fill="white" transform="matrix(1 0 0 -1 0 29.9971)"/>
</clipPath>
</defs>
</svg>
