<svg width="22" height="22" viewBox="0 0 22 22" fill="none" xmlns="http://www.w3.org/2000/svg">
<g clip-path="url(#clip0_2027_4)">
<path fill-rule="evenodd" clip-rule="evenodd" d="M10.9989 1.7017L8.0509 0L6.4163 2.8325H2.9876V6.3272L0 8.052L1.7017 11L0 13.9474L2.9876 15.6728V18.9206H6.27385L8.0509 22L10.9989 20.2983L13.9469 22L15.7245 18.92H19.1136V15.6145L22 13.9474L20.2977 11L22 8.05255L19.1136 6.38605V2.83305H15.5832L13.9469 0L10.9989 1.7017ZM15.0772 7.87545L16.3169 9.1333L10.0303 15.4583L6.2711 11.6468L7.5053 10.4049L10.0282 12.9245L15.0772 7.87545Z" fill="#0095F6"/>
</g>
<defs>
<clipPath id="clip0_2027_4">
<rect width="22" height="22" fill="white"/>
</clipPath>
</defs>
</svg>
