<svg width="34" height="30" viewBox="0 0 34 30" fill="none" xmlns="http://www.w3.org/2000/svg">
<path d="M33.7259 27.1344L18.3879 1.33863C18.0605 0.788291 17.5546 0.472595 17 0.472595C16.4453 0.472595 15.9394 0.788291 15.6122 1.33875L0.27399 27.1344C-0.0570758 27.6911 -0.0896181 28.2868 0.184529 28.7687C0.458796 29.2508 0.987517 29.5273 1.63524 29.5273H32.3647C33.0123 29.5273 33.5411 29.2507 33.8154 28.7687C34.0895 28.2867 34.057 27.691 33.7259 27.1344ZM2.0177 27.726L17 2.529L31.9822 27.726H2.0177Z" fill="currentColor"/>
<path d="M15.7993 10.9989V18.6955C15.7993 19.3586 16.337 19.8963 17.0001 19.8963C17.6633 19.8963 18.201 19.3586 18.201 18.6955V10.9989C18.201 10.3356 17.6633 9.79803 17.0001 9.79803C16.3369 9.79803 15.7993 10.3356 15.7993 10.9989Z" fill="currentColor"/>
<path d="M17.0001 21.6423C16.337 21.6423 15.7993 22.1801 15.7993 22.8432V23.4467C15.7993 24.1098 16.337 24.6475 17.0001 24.6475C17.6633 24.6475 18.201 24.1098 18.201 23.4467V22.8432C18.201 22.1801 17.6632 21.6423 17.0001 21.6423Z" fill="currentColor"/>
</svg>
