<svg width="253" height="253" viewBox="0 0 253 253" fill="none" xmlns="http://www.w3.org/2000/svg">
<path d="M126.45 0C196.287 0.000107206 252.9 56.6139 252.9 126.45C252.9 196.286 196.286 252.9 126.45 252.9C56.6139 252.9 0.000107234 196.287 0 126.45C0 56.6138 56.6138 0 126.45 0ZM191.026 74.8271C185.791 70.2022 177.8 70.694 173.178 75.9258L108.25 149.365L79.835 116.365C75.2772 111.074 67.294 110.478 62 115.033C56.706 119.591 56.1101 127.577 60.668 132.868L98.541 176.853C100.924 179.618 104.389 181.22 108.042 181.245H108.123C111.745 181.245 115.196 179.691 117.602 176.977L192.125 92.6768C196.75 87.4445 196.259 79.4524 191.026 74.8271Z" fill="currentColor"/>
</svg>
