<svg width="342" height="88" viewBox="0 0 342 88" fill="currentColor" xmlns="http://www.w3.org/2000/svg">
<path d="M53.5556 48.3077C56.5159 51.8063 57.9961 56.3814 57.9961 62.033C57.9961 66.8772 56.9196 71.3177 54.6321 75.22C52.3445 79.1223 49.115 82.2172 44.6745 84.5048C40.234 86.9269 34.8515 88.0034 28.5271 88.0034C24.6248 88.0034 20.3188 87.4651 15.7437 86.2541C10.4958 84.9084 6.99721 84.2356 5.11335 84.2356C4.30598 84.2356 3.36404 84.2356 2.28755 84.3702H2.15299C1.61474 84.5048 1.21106 84.3702 0.80737 83.9665C0.403685 83.5628 0.269124 83.1591 0.269124 82.6209C0.403686 80.6025 0.538247 77.9112 0.538247 74.5472C0.538247 70.914 0.403686 67.55 0.269124 64.4551C0.269124 63.3786 0.134562 62.4366 0 61.6293C0 61.091 0.134562 60.5528 0.538247 60.1491C0.807371 59.7454 1.34562 59.4763 1.88386 59.3417C2.42211 59.3417 2.8258 59.4763 3.22948 59.7454C3.63317 60.1491 3.90229 60.5528 4.03685 61.091C5.11335 67.9537 7.53546 73.3361 11.4377 77.1039C15.6092 81.1407 20.8571 83.1591 27.0469 83.1591C31.622 83.1591 35.2552 81.8135 37.9464 79.3914C40.6376 76.8347 41.9833 73.4707 41.9833 69.2993C41.9833 62.9749 37.6773 58.2652 29.0653 54.9012L15.8783 49.3841C5.51703 45.0782 0.403686 38.081 0.403686 28.3925C0.403686 24.0865 1.48018 20.0497 3.49861 16.4165C5.65159 12.9179 8.74651 9.95757 12.9179 7.80458C16.9548 5.65159 22.0681 4.5751 27.9888 4.5751C30.9492 4.5751 33.5059 4.84422 35.5243 5.24791C37.6773 5.65159 39.6957 6.3244 41.8487 6.99721C43.8671 7.67002 45.3473 8.20827 46.2892 8.47739C47.7694 9.01564 49.115 9.28476 50.3261 9.28476H52.0754C52.6136 9.1502 53.0173 9.28476 53.421 9.68845C53.6901 10.0921 53.9592 10.4958 53.9592 11.0341C53.8247 13.0525 53.6901 15.7437 53.6901 18.9732C53.6901 21.6644 53.6901 23.5483 53.8247 24.7594C53.8247 25.0285 53.8247 25.2976 53.9592 25.5667C53.9592 26.2395 53.8247 26.7778 53.421 27.316C53.0173 27.7197 52.6136 27.9888 51.9408 27.9888H51.8063C51.268 27.9888 50.8643 27.8543 50.4606 27.4506C50.057 27.0469 49.9224 26.6432 49.7878 26.105C49.5187 21.3953 47.5003 17.493 44.1362 14.3981C40.3685 10.8995 35.6589 9.15019 30.1418 9.15019C25.9704 9.15019 22.4718 10.2267 19.646 12.3797C17.3585 14.2635 16.0128 16.5511 15.4746 19.5115C14.9364 22.7409 15.7437 25.7013 18.0313 28.1234C19.9151 30.1418 22.8755 32.0257 26.9123 33.6404L38.3501 38.4846C45.4819 41.5796 50.4606 44.8091 53.5556 48.3077ZM103.747 29.7381C100.114 28.5271 96.0771 27.8543 91.6365 27.8543C82.6209 27.8543 75.22 30.4109 69.703 35.6589C64.0514 40.7722 61.3601 48.4422 61.3601 58.3998C61.3601 68.3574 64.1859 75.8928 69.8375 80.737C75.6237 85.5813 82.89 88.0034 91.7711 88.0034C103.343 88.0034 111.148 83.4283 115.319 74.1435C115.589 73.6053 115.589 72.9324 115.454 72.3942C115.185 71.8559 114.781 71.4523 114.243 71.0486C113.57 70.7795 113.032 70.7795 112.494 71.0486C111.821 71.1832 111.417 71.7214 111.148 72.2596C109.533 75.7582 107.515 78.3149 105.093 79.9297C101.998 81.9481 98.6337 83.0246 95.0006 83.0246C90.2909 83.0246 86.6577 81.0061 83.9665 77.1039C81.2753 73.067 79.9297 66.2044 79.9297 56.5159C79.9297 47.7694 81.0061 41.5796 83.1591 37.9464C85.3121 34.3132 88.407 32.4294 92.3093 32.4294C94.5969 32.4294 96.6153 32.9676 98.0955 34.0441C99.7102 34.986 100.518 36.4662 100.518 38.4846C100.518 39.5611 100.248 40.6376 99.8448 41.445C99.4411 42.5215 99.3065 43.4634 99.3065 44.2708C99.3065 46.2892 99.9793 47.7694 101.46 48.8459C102.805 49.9224 104.554 50.4606 106.707 50.4606C109.399 50.4606 111.552 49.6533 113.032 48.0385C114.512 46.4238 115.319 44.4054 115.319 41.9833C115.319 39.4266 114.243 37.0045 112.224 34.8515C110.206 32.6985 107.38 30.9492 103.747 29.7381ZM168.606 31.2183C166.184 28.9308 162.954 27.8543 159.052 27.8543C152.458 27.8543 147.48 31.4874 144.25 38.8883C144.116 39.0229 143.981 39.1575 143.846 39.1575C143.712 39.292 143.443 39.1575 143.308 39.1575C143.174 39.0229 143.174 38.8883 143.174 38.6192V35.3897C143.174 34.1787 143.174 33.1022 143.443 31.7566C143.443 31.0838 143.308 30.4109 142.905 30.0073C142.366 29.469 141.828 29.1999 141.155 29.1999H121.509C120.836 29.1999 120.433 29.3345 119.894 29.8727C119.491 30.2764 119.356 30.8146 119.356 31.3529C119.356 32.0257 119.491 32.4294 120.029 32.9676C120.433 33.3713 120.971 33.5059 121.644 33.5059L123.662 33.3713C124.873 33.3713 125.412 34.3132 125.412 36.0625V79.7951C125.412 81.4098 124.873 82.3518 123.662 82.3518L122.182 82.2172C121.509 82.2172 120.971 82.3518 120.567 82.7555C120.029 83.2937 119.894 83.6974 119.894 84.3702V84.5048C119.894 85.043 120.029 85.5812 120.433 85.9849C120.971 86.3886 121.375 86.6577 122.047 86.6577H152.055C152.593 86.6577 153.131 86.3886 153.535 85.9849C153.939 85.5812 154.208 85.043 154.208 84.5048V84.2356C154.208 83.6974 153.939 83.1591 153.535 82.7555C153.131 82.3518 152.593 82.0826 152.055 82.0826L144.923 82.3518C143.712 82.3518 143.174 81.4098 143.174 79.7951V59.4763C143.174 55.8431 143.712 51.9408 144.788 48.0385C145.73 44.0017 147.211 40.6376 148.96 38.081C150.844 35.3897 152.997 34.0441 155.284 34.0441C157.034 34.0441 157.841 34.986 157.841 37.0045C157.841 37.2736 157.706 38.081 157.437 39.6957C157.034 41.0413 156.899 41.9833 156.899 42.5215C156.899 44.4054 157.706 45.751 159.187 46.6929C160.667 47.6348 162.281 48.1731 164.165 48.1731C166.453 48.1731 168.337 47.5003 169.951 46.1547C171.566 44.6745 172.374 42.6561 172.374 39.9648C172.374 36.3317 171.028 33.5059 168.606 31.2183ZM193.231 17.6276C190.809 17.6276 188.656 16.8202 187.041 15.0709C185.291 13.3216 184.35 11.3032 184.35 8.88107C184.35 6.3244 185.291 4.30598 187.041 2.55667C188.656 0.807371 190.809 0 193.231 0C195.653 0 197.806 0.807371 199.555 2.55667C201.304 4.30598 202.112 6.3244 202.112 8.88107C202.112 11.3032 201.304 13.3216 199.555 15.0709C197.806 16.8202 195.653 17.6276 193.231 17.6276ZM206.014 82.2172C206.552 82.2172 207.225 82.3518 207.629 82.7555C208.032 83.2937 208.302 83.8319 208.302 84.3702C208.302 85.043 208.167 85.5812 207.629 85.9849C207.225 86.3886 206.687 86.6577 206.149 86.6577H180.447C179.774 86.6577 179.236 86.3886 178.833 85.9849C178.429 85.5812 178.16 85.043 178.16 84.3702C178.16 83.8319 178.429 83.2937 178.833 82.7555C179.371 82.3518 179.909 82.2172 180.582 82.2172L182.6 82.3518H182.869C183.946 82.3518 184.35 81.4098 184.35 79.7951V36.0625C184.35 34.5824 183.811 33.6404 182.735 33.3713L180.582 33.5059C179.909 33.5059 179.371 33.3713 178.967 32.9676C178.563 32.4294 178.294 32.0257 178.294 31.3529C178.294 30.8146 178.563 30.2764 178.967 29.8727C179.371 29.3345 179.909 29.1999 180.447 29.1999H199.959C200.497 29.1999 201.035 29.3345 201.439 29.8727C201.843 30.2764 202.112 30.8146 202.112 31.3529V79.7951C202.112 81.5444 202.65 82.4863 203.861 82.3518L206.014 82.2172ZM213.146 5.78615C212.607 5.78615 212.204 6.05528 211.666 6.45896C211.262 6.86265 211.127 7.4009 211.127 7.93914C211.127 8.47739 211.396 9.01564 211.8 9.41932C212.204 9.82301 212.742 10.0921 213.28 9.95757L215.568 9.823C216.241 9.823 216.644 10.0921 216.913 10.6304C217.183 11.1686 217.317 11.8414 217.317 12.5142V85.1776C217.317 85.8504 217.586 86.2541 217.99 86.6577C218.394 87.196 218.797 87.3306 219.47 87.3306H224.718C225.256 87.3306 225.66 87.196 226.064 86.7923C226.467 86.3886 226.736 85.9849 226.736 85.3121C226.871 83.5628 227.275 82.0826 227.948 80.8716C228.755 79.2568 229.966 78.4495 231.581 78.4495C232.523 78.4495 233.33 78.8532 234.003 79.6605C236.021 82.3518 238.309 84.3702 240.731 85.8504C243.153 87.3305 246.786 88.0034 251.361 88.0034C259.435 88.0034 265.625 85.4467 269.796 80.4679C274.102 75.3546 276.121 67.9537 276.121 58.1307C276.121 48.1731 274.102 40.5031 270.2 35.5243C266.163 30.4109 260.242 27.8543 252.303 27.8543C248.266 27.8543 244.633 28.7962 241.538 30.6801C239.52 32.0257 237.905 33.6404 236.694 35.3897C236.425 35.7934 236.021 35.928 235.618 35.7934C235.214 35.6589 235.079 35.3897 235.079 34.986V7.93914C235.079 7.4009 234.81 6.86265 234.406 6.45896C234.003 6.05528 233.599 5.78615 232.926 5.78615H213.146ZM247.19 81.8135C239.251 81.8135 235.348 75.0854 235.348 61.4947V55.7085C235.348 48.9805 236.425 43.7326 238.443 39.8303C240.596 35.928 243.557 33.9095 247.459 33.9095C251.227 33.9095 253.783 35.928 255.264 39.8303C256.609 43.7326 257.282 49.7878 257.282 58.1307C257.282 64.1859 256.878 68.8956 256.34 72.2596C255.667 75.6237 254.591 78.0458 253.111 79.526C251.765 81.0062 249.747 81.8135 247.19 81.8135ZM288.635 35.7934C293.614 30.6801 301.149 28.1234 311.241 28.1234C321.333 28.1234 328.869 30.6801 333.848 35.7934C338.826 40.9068 341.249 48.3077 341.249 57.9961C341.249 78.0458 331.291 88.0034 311.241 88.0034C301.149 88.0034 293.614 85.4467 288.635 80.3333C283.656 75.22 281.099 67.8191 281.099 57.9961C281.099 48.3077 283.656 40.9068 288.635 35.7934ZM302.629 77.5075C304.379 81.4098 307.204 83.2937 311.241 83.2937C315.278 83.2937 318.104 81.4098 319.853 77.6421C321.603 73.8744 322.41 67.4154 322.41 58.2652C322.41 48.9805 321.603 42.3869 319.853 38.4846C318.104 34.5824 315.278 32.6985 311.241 32.6985C307.204 32.6985 304.379 34.5824 302.629 38.4846C300.88 42.3869 299.938 48.9805 299.938 58.2652C299.938 67.2809 300.88 73.7398 302.629 77.5075Z"/>
</svg>
