<svg width="135" height="108" viewBox="0 0 135 108" fill="currentColor" xmlns="http://www.w3.org/2000/svg">
<path d="M127.112 23.6827C123.227 19.9876 117.991 17.3002 114.444 13.437C112.924 11.7574 112.079 7.72628 109.377 7.55832C105.492 7.05443 101.776 13.9409 99.4116 17.4681C99.0738 16.4603 98.2292 15.6205 96.878 15.7885C79.4811 18.3079 61.7463 17.4681 44.1805 17.972C41.6469 17.972 41.6469 21.8351 44.1805 21.8351C61.7463 22.1711 79.65 22.1711 97.0469 19.8196C91.642 25.6983 85.8994 31.2411 80.3256 36.9518C78.4677 36.6159 76.4408 36.7838 74.5829 36.7838C72.2183 36.7838 69.6847 36.7838 67.3201 36.9518C64.9555 37.2877 64.9555 40.311 67.3201 40.479C69.6847 40.8149 72.2183 40.647 74.5829 40.647C75.0896 40.647 75.7652 40.647 76.2719 40.647C73.7384 43.1664 71.3738 45.8538 68.8402 48.5412C67.489 50.0529 65.8 51.5645 64.2799 53.0762C63.942 51.9005 62.5908 50.8927 61.2396 51.7325C61.0707 51.9005 60.9018 51.9005 60.7329 52.0684C60.0573 52.5723 59.7195 53.4121 60.2262 54.2519C57.3549 49.0451 42.3225 52.9082 36.7488 53.2442C25.0945 54.084 13.4402 53.7481 1.78596 54.5879C-0.409773 54.7558 -0.409773 57.7792 1.78596 57.9471C13.6091 58.7869 25.7701 58.283 37.5933 57.6112C43.5049 57.2753 49.4164 56.4355 55.4969 56.2675C57.3549 56.2675 59.0439 56.4355 60.7329 56.2675C55.8347 60.6345 50.7677 65.1695 47.8963 70.7123C44.6872 77.0949 43.5049 84.9891 41.3091 91.7076C39.6201 96.5785 36.411 100.778 36.0731 105.816C36.0731 106.824 37.0866 108 38.2689 108C43.8427 107.328 49.0786 104.473 54.4835 102.961C61.7463 100.946 68.8402 98.93 76.103 97.0824C76.9475 96.9145 77.4542 96.0747 77.4542 95.2348C77.4542 95.0669 77.4542 94.8989 77.4542 94.7309C77.4542 94.563 77.4542 94.395 77.4542 94.2271C86.575 85.325 97.2158 79.1104 105.323 69.0327C109.884 63.4899 114.275 57.7792 119.173 52.4044C123.396 47.7014 129.476 43.5023 133.192 38.6314C138.09 32.5848 132.01 28.2177 127.112 23.6827ZM44.0116 102.121C40.6335 101.449 42.6603 101.114 44.1805 97.2504C44.1805 97.0824 44.1805 97.0824 44.3494 96.9145C44.8561 97.4184 45.5317 97.9222 46.0384 98.4261C46.714 99.098 47.3896 99.7698 47.7274 100.61C47.8963 100.778 47.8963 101.114 48.0652 101.281C45.8695 101.953 44.3494 102.289 44.0116 102.121ZM52.6256 100.106C52.4567 99.7698 52.1189 99.4339 51.6122 99.2659C51.4433 98.93 51.2744 98.4261 51.1055 98.0902C50.5988 97.0824 49.9231 96.5785 49.0786 95.9067C48.403 95.4028 47.7274 94.8989 47.0518 94.395C46.714 94.2271 46.0384 93.8911 45.5317 93.5552C47.2207 88.8523 48.403 83.9813 49.7542 79.4463C50.261 77.7667 50.9366 76.0871 51.7811 74.4075C52.4567 75.0793 53.3012 75.7512 54.1457 76.423C56.5103 78.2706 57.6927 80.79 59.7195 82.9736C61.9152 85.493 63.2664 88.5163 65.4622 90.8678C66.9823 92.5474 69.0091 93.7232 71.0359 94.8989C66.9823 96.0747 58.875 98.4261 52.6256 100.106ZM101.438 67.689C93.6689 77.2628 83.028 83.3095 74.7518 92.2115C71.8805 90.5319 69.3469 89.0202 67.3201 86.1649C65.9689 84.1493 64.9555 82.4697 63.2664 80.6221C61.5774 78.9425 60.564 76.7589 59.0439 75.0793C57.6927 73.5677 55.328 72.8958 54.1457 71.2162L53.9768 71.0482C59.3817 63.154 67.8268 56.7714 74.0762 49.8849C77.7921 45.8538 81.6768 41.8227 85.3927 37.9596C89.1085 41.8227 93.3311 45.182 97.3847 48.7092C101.101 51.9005 104.648 55.4277 108.87 58.1151C109.039 58.1151 109.039 58.1151 109.208 58.283C106.674 61.3064 103.972 64.4977 101.438 67.689ZM112.924 53.7481C112.417 54.2519 112.079 54.7558 111.741 55.2597C111.741 55.0918 111.573 55.0918 111.573 54.9238L111.404 54.7558C111.235 54.5879 111.235 54.5879 111.066 54.4199C103.465 48.2053 96.2024 40.647 88.0951 35.2722C91.1353 32.2488 94.0067 29.2255 97.0469 26.2022C99.7494 30.5692 102.79 34.7683 106.674 38.1275C110.559 41.4868 114.951 44.3421 119.004 47.5334C116.64 49.549 114.613 51.5645 112.924 53.7481ZM127.449 38.4635C125.76 40.647 123.734 42.8305 121.707 44.846C117.653 41.6547 113.262 38.7994 109.377 35.4401C105.83 32.2488 103.465 27.7138 99.9183 24.6905C99.9183 24.6905 99.9183 24.6905 99.9183 24.5226C99.7494 24.3546 99.4116 24.1866 99.2427 24.0187C99.9183 23.1788 100.763 22.507 101.438 21.6672C103.296 19.6516 104.816 17.804 106.505 15.4526C110.052 10.4137 108.194 12.7652 111.573 16.6283C116.977 22.507 134.205 29.3935 127.449 38.4635Z"/>
<path d="M5.67045 4.53499C18.8448 5.3748 32.0192 5.87869 45.3625 5.54276C56.3412 5.3748 67.1509 7.39035 77.9607 7.05443C80.6631 6.88646 80.6631 2.85536 77.9607 2.85536C77.7918 2.85536 77.6229 2.85536 77.454 2.85536C66.8131 3.19129 56.1723 1.17573 45.3625 1.3437C32.1881 1.67962 18.6759 -5.53731e-06 5.67045 1.00777C3.30581 1.17573 3.30581 4.53499 5.67045 4.53499Z"/>
<path d="M88.0948 4.70295C95.0198 5.03888 101.776 4.19906 108.701 4.19906C111.403 4.19906 111.403 -3.8147e-06 108.701 -3.8147e-06C101.776 -3.8147e-06 95.0198 0.503885 88.0948 1.00777C85.7301 1.17574 85.7301 4.53499 88.0948 4.70295Z"/>
<path d="M3.81288 22.339C8.37324 23.0109 13.1025 22.1711 17.6629 22.339C23.4056 22.507 29.3171 22.507 35.0598 22.507C35.2287 22.507 35.2287 22.507 35.3976 22.507H35.5665C36.58 22.339 37.0867 21.3313 37.0867 20.4914C37.0867 19.6516 36.7489 18.6438 35.5665 18.4759C35.3976 18.4759 35.3976 18.4759 35.2287 18.4759H35.0598C24.419 18.3079 14.1159 18.14 3.64398 19.9876C2.63056 20.1555 2.63056 22.1711 3.81288 22.339Z"/>
<path d="M26.108 40.9829C36.0733 40.9829 46.2074 41.3188 56.1726 40.311C58.8751 39.9751 58.8751 35.944 56.1726 36.112C38.1001 37.7916 18.8452 34.0964 1.11045 38.7994C-0.578574 39.3033 -0.240769 41.6547 1.44825 41.6547C9.55557 41.8227 17.8318 40.9829 26.108 40.9829Z"/>
<path d="M34.7218 70.7123C29.8237 71.3841 25.2633 72.2239 20.1962 72.2239C14.7913 72.2239 9.55537 72.056 4.15049 72.7278C2.12366 73.0638 2.12366 75.5832 4.15049 75.9191C14.4535 77.2628 25.0944 76.591 35.2285 74.9113C37.5932 74.4075 37.0865 70.3764 34.7218 70.7123Z"/>
</svg>
